<?xml version="1.0" encoding="utf-8"?>
<!-- Generator: Adobe Illustrator 23.1.0, SVG Export Plug-In . SVG Version: 6.00 Build 0)  -->
<svg version="1.1" id="Layer_1" xmlns="http://www.w3.org/2000/svg" xmlns:xlink="http://www.w3.org/1999/xlink" x="0px" y="0px"
	 viewBox="0 0 500 65" style="enable-background:new 0 0 500 65;" xml:space="preserve">
<style type="text/css">
	.st0{fill:#FFFFFF;}
</style>
<g transform="translate(0.000000,65.000000) scale(0.100000,-0.100000)">
	<path class="st0" d="M4660,619c-53-16-86-45-112-97c-21-43-23-60-23-202c0-147,1-158,26-205c35-69,82-95,174-95c50,0,82,6,107,19
		c36,18,38,18,54,0c12-13,31-19,61-19h43v170v170l-77-1c-113-1-127-7-131-52l-3-37h45h46v-55c0-51-2-55-32-72c-19-9-57-17-86-17
		c-46-1-57,3-77,26c-29,33-40,109-32,218c10,147,42,169,227,154l111-9l-3,45c-3,44-4,45-43,52C4857,625,4695,630,4660,619z"/>
	<path class="st0" d="M30,320V20h60h60v121v122l38-7c20-3,45-6,55-6c13,0,33-31,72-115l54-115h71h71l-62,117c-41,76-58,118-50,121
		c32,11,69,55,81,97c17,61,8,155-19,199c-35,56-76,66-266,66H30V320z M337,512c32-20,39-115,11-149c-7-9-41-13-104-13h-94v85v85h88
		C286,520,330,516,337,512z"/>
	<path class="st0" d="M760,415c0-226,9-291,48-337c39-47,78-58,194-58c149,1,201,29,238,130c8,22,14,115,17,253l6,217h-66h-66
		l-3-220l-3-220l-28-27c-24-25-35-28-92-28s-68,3-92,28l-28,27l-3,220l-3,220h-60h-59V415z"/>
	<path class="st0" d="M1520,320V20h60h59l3,117l3,118l25-2c207-16,258-4,292,74c27,62,23,188-8,230c-41,56-72,63-261,63h-173V320z
		 M1834,507c12-9,20-31,24-65c4-45,1-54-22-77c-24-24-31-26-108-23l-83,3l-3,88l-3,87h89C1786,520,1822,515,1834,507z"/>
	<path class="st0" d="M2240,320V20h60h60v121v121l58-7c31-4,57-8,58-8c0-1,24-53,54-114l54-113h68h69l-58,112c-32,62-59,115-61,118
		c-1,3,13,14,32,24c44,24,66,76,66,159c-1,88-27,142-82,167c-37,17-66,20-210,20h-168V320z M2554,507c26-19,33-99,12-132
		c-16-24-21-25-111-25h-95v85v85h88C2505,520,2543,515,2554,507z"/>
	<path class="st0" d="M3074,601c-74-34-103-97-111-242c-10-168,21-269,97-313c43-25,210-35,279-16c106,28,145,118,139,314
		c-4,142-23,196-83,242c-37,28-43,29-159,32C3134,620,3108,617,3074,601z M3320,492c34-35,44-89,38-205c-7-128-39-167-138-167
		c-109,0-135,38-134,200c0,171,20,199,137,200C3285,520,3294,517,3320,492z"/>
	<path class="st0" d="M3750,320V20h60h60l2,191l3,192l130-192l129-191h63h63v300v300h-65h-65V428V235l-128,192l-127,193h-62h-63V320
		z"/>
</g>
</svg>
