<?xml version="1.0" standalone="no"?>
<!DOCTYPE svg PUBLIC "-//W3C//DTD SVG 20010904//EN"
 "http://www.w3.org/TR/2001/REC-SVG-20010904/DTD/svg10.dtd">
<svg version="1.0" xmlns="http://www.w3.org/2000/svg"
 width="500.000000pt" height="65.000000pt" viewBox="0 0 500.000000 65.000000"
 preserveAspectRatio="xMidYMid meet">

<g transform="translate(0.000000,65.000000) scale(0.100000,-0.100000)"
fill="#000000" stroke="none">
<path d="M4660 619 c-53 -16 -86 -45 -112 -97 -21 -43 -23 -60 -23 -202 0
-147 1 -158 26 -205 35 -69 82 -95 174 -95 50 0 82 6 107 19 36 18 38 18 54 0
12 -13 31 -19 61 -19 l43 0 0 170 0 170 -77 -1 c-113 -1 -127 -7 -131 -52 l-3
-37 45 0 46 0 0 -55 c0 -51 -2 -55 -32 -72 -19 -9 -57 -17 -86 -17 -46 -1 -57
3 -77 26 -29 33 -40 109 -32 218 10 147 42 169 227 154 l111 -9 -3 45 c-3 44
-4 45 -43 52 -78 13 -240 18 -275 7z"/>
<path d="M30 320 l0 -300 60 0 60 0 0 121 0 122 38 -7 c20 -3 45 -6 55 -6 13
0 33 -31 72 -115 l54 -115 71 0 71 0 -62 117 c-41 76 -58 118 -50 121 32 11
69 55 81 97 17 61 8 155 -19 199 -35 56 -76 66 -266 66 l-165 0 0 -300z m307
192 c32 -20 39 -115 11 -149 -7 -9 -41 -13 -104 -13 l-94 0 0 85 0 85 88 0
c48 0 92 -4 99 -8z"/>
<path d="M760 415 c0 -226 9 -291 48 -337 39 -47 78 -58 194 -58 149 1 201 29
238 130 8 22 14 115 17 253 l6 217 -66 0 -66 0 -3 -220 -3 -220 -28 -27 c-24
-25 -35 -28 -92 -28 -57 0 -68 3 -92 28 l-28 27 -3 220 -3 220 -60 0 -59 0 0
-205z"/>
<path d="M1520 320 l0 -300 60 0 59 0 3 117 3 118 25 -2 c207 -16 258 -4 292
74 27 62 23 188 -8 230 -41 56 -72 63 -261 63 l-173 0 0 -300z m314 187 c12
-9 20 -31 24 -65 4 -45 1 -54 -22 -77 -24 -24 -31 -26 -108 -23 l-83 3 -3 88
-3 87 89 0 c58 0 94 -5 106 -13z"/>
<path d="M2240 320 l0 -300 60 0 60 0 0 121 0 121 58 -7 c31 -4 57 -8 58 -8 0
-1 24 -53 54 -114 l54 -113 68 0 69 0 -58 112 c-32 62 -59 115 -61 118 -1 3
13 14 32 24 44 24 66 76 66 159 -1 88 -27 142 -82 167 -37 17 -66 20 -210 20
l-168 0 0 -300z m314 187 c26 -19 33 -99 12 -132 -16 -24 -21 -25 -111 -25
l-95 0 0 85 0 85 88 0 c57 0 95 -5 106 -13z"/>
<path d="M3074 601 c-74 -34 -103 -97 -111 -242 -10 -168 21 -269 97 -313 43
-25 210 -35 279 -16 106 28 145 118 139 314 -4 142 -23 196 -83 242 -37 28
-43 29 -159 32 -102 2 -128 -1 -162 -17z m246 -109 c34 -35 44 -89 38 -205 -7
-128 -39 -167 -138 -167 -109 0 -135 38 -134 200 0 171 20 199 137 200 62 0
71 -3 97 -28z"/>
<path d="M3750 320 l0 -300 60 0 60 0 2 191 3 192 130 -192 129 -191 63 0 63
0 0 300 0 300 -65 0 -65 0 0 -192 0 -193 -128 192 -127 193 -62 0 -63 0 0
-300z"/>
</g>
</svg>
